<?xml version="1.0" encoding="utf-8"?>
<!-- Generator: Adobe Illustrator 15.0.0, SVG Export Plug-In . SVG Version: 6.00 Build 0)  -->
<!DOCTYPE svg PUBLIC "-//W3C//DTD SVG 1.1//EN" "http://www.w3.org/Graphics/SVG/1.1/DTD/svg11.dtd">
<svg version="1.1" id="Layer_1" xmlns="http://www.w3.org/2000/svg" xmlns:xlink="http://www.w3.org/1999/xlink" x="0px" y="0px"
	 width="44.2px" height="44.2px" viewBox="0 0 44.2 44.2" style="enable-background:new 0 0 44.2 44.2;" xml:space="preserve">
<style type="text/css">
<![CDATA[
	.st0{fill:#FFFFFF;}
]]>
</style>
<path class="st0" d="M44.4,6.1c-0.2-1.2-1.3-3.6-4.2-3.6H25.5c-1,0-2.4,0.4-3.3,1.4c-0.9-1.1-2.3-1.5-3.4-1.5H4.1
	c-3,0-4.1,2.4-4.2,3.6l0,27.8c0,1.9,0.4,3.3,1.3,4c0.7,0.5,1.3,0.5,1.6,0.5c0.9,0,12.7-0.1,15.4,0c2,0.1,2.9,3.7,3,3.7h1.9
	c0,0,0.9-3.5,3-3.6c2.7-0.1,14.4,0,15.4,0c0.3,0,1,0,1.6-0.5c0.9-0.7,1.3-2.1,1.3-4V6.2L44.4,6.1z M18.3,36.2c-2.9-0.1-15,0-15.6,0
	l0-0.1l-0.2,0.1c-0.1,0-0.1,0-0.2-0.1c-0.2-0.2-0.5-0.7-0.5-2.4V6.1c0.1-0.4,0.5-1.8,2.2-1.8h14.6c0.4,0,2.4,0.1,2.4,2.2v31
	C20.4,36.8,19.5,36.2,18.3,36.2z M42.4,33.8c0,1.7-0.4,2.2-0.5,2.4c-0.1,0.1-0.1,0.1-0.1,0.1l-0.2,0c-0.5,0-12.7-0.1-15.6,0
	c-1.2,0.1-2.1,0.6-2.8,1.4v-31c0-2.1,2-2.2,2.4-2.2h14.6c1.8,0,2.2,1.4,2.2,1.8V33.8z"/>
</svg>
