<?xml version="1.0" encoding="utf-8"?>
<!-- Generator: Adobe Illustrator 15.0.0, SVG Export Plug-In . SVG Version: 6.00 Build 0)  -->
<!DOCTYPE svg PUBLIC "-//W3C//DTD SVG 1.1//EN" "http://www.w3.org/Graphics/SVG/1.1/DTD/svg11.dtd">
<svg version="1.1" id="Layer_1" xmlns="http://www.w3.org/2000/svg" xmlns:xlink="http://www.w3.org/1999/xlink" x="0px" y="0px"
	 width="44.2px" height="44.2px" viewBox="0 0 44.2 44.2" style="enable-background:new 0 0 44.2 44.2;" xml:space="preserve">
<style type="text/css">
<![CDATA[
	.st0{fill:#FFFFFF;}
]]>
</style>
<g>
	<g>
		<path class="st0" d="M22.1,44.2C9.9,44.2,0,34.3,0,22.1C0,9.9,9.9,0,22.1,0s22.1,9.9,22.1,22.1C44.2,34.3,34.3,44.2,22.1,44.2z
			 M22.1,1.5c-11.4,0-20.6,9.2-20.6,20.6s9.2,20.6,20.6,20.6s20.6-9.2,20.6-20.6S33.5,1.5,22.1,1.5z"/>
	</g>
	<g>
		<path class="st0" d="M33.7,22.9H22.1c-0.2,0-0.4-0.1-0.5-0.2l-8.2-8.2c-0.3-0.3-0.3-0.8,0-1.1s0.8-0.3,1.1,0l8,8h11.3
			c0.4,0,0.8,0.3,0.8,0.8C34.5,22.5,34.2,22.9,33.7,22.9z"/>
	</g>
</g>
</svg>
