<?xml version="1.0" encoding="utf-8"?>
<!-- Generator: Adobe Illustrator 15.0.0, SVG Export Plug-In . SVG Version: 6.00 Build 0)  -->
<!DOCTYPE svg PUBLIC "-//W3C//DTD SVG 1.1//EN" "http://www.w3.org/Graphics/SVG/1.1/DTD/svg11.dtd">
<svg version="1.1" id="Layer_1" xmlns="http://www.w3.org/2000/svg" xmlns:xlink="http://www.w3.org/1999/xlink" x="0px" y="0px"
	 width="68.1px" height="68.1px" viewBox="0 0 68.1 68.1" style="enable-background:new 0 0 68.1 68.1;" xml:space="preserve">
<style type="text/css">
<![CDATA[
	.st0{fill:#FFFFFF;}
]]>
</style>
<g>
	<g>
		<path class="st0" d="M34.1,68.1C15.3,68.1,0,52.8,0,34C0,15.3,15.3,0,34.1,0s34,15.3,34,34.1C68.1,52.8,52.8,68.1,34.1,68.1z
			 M34.1,1.5C16.1,1.5,1.5,16.1,1.5,34c0,17.9,14.6,32.6,32.6,32.6S66.6,52,66.6,34C66.6,16.1,52,1.5,34.1,1.5z"/>
	</g>
	<g>
		<path class="st0" d="M36.2,34.5c0,1.2-1,2.2-2.2,2.2s-2.2-1-2.2-2.2s1-2.2,2.2-2.2S36.2,33.3,36.2,34.5"/>
	</g>
	<g>
		<path class="st0" d="M34.1,37c-1.3,0-2.4-1.1-2.4-2.4c0-1.4,1.1-2.4,2.4-2.4s2.4,1.1,2.4,2.4C36.5,35.9,35.4,37,34.1,37z
			 M34.1,32.6c-1.1,0-1.9,0.9-1.9,1.9s0.9,1.9,1.9,1.9c1.1,0,1.9-0.9,1.9-1.9S35.1,32.6,34.1,32.6z"/>
	</g>
	<g>
		<path class="st0" d="M34.1,49.7c-0.9,0-1.8-0.1-2.8-0.3c-0.5-0.1-1-0.5-1.1-1.1l-0.6-3.1c-0.8-0.4-1.6-0.8-2.3-1.3l-3,1
			C24.1,45,24,45,23.8,45c-0.4,0-0.7-0.2-1-0.5c-1.3-1.5-2.3-3.1-2.8-4.9c-0.2-0.5,0-1.2,0.5-1.5l2.3-2c-0.1-0.4-0.1-0.8-0.1-1.3
			c0-0.5,0-0.9,0.1-1.3l-2.4-2.1c-0.4-0.3-0.6-0.9-0.4-1.5c0.6-1.7,1.5-3.4,2.8-4.8c0.4-0.4,1-0.6,1.5-0.4l3,1
			c0.7-0.5,1.5-1,2.3-1.3l0.6-3.1c0.1-0.5,0.5-1,1.1-1.1c1.8-0.4,3.8-0.4,5.6,0c0.5,0.1,1,0.5,1,1.1l0.6,3.1
			c0.8,0.3,1.6,0.8,2.3,1.3l3-1c0.1-0.1,0.3-0.1,0.5-0.1c0.4,0,0.7,0.2,1,0.5c1.3,1.4,2.2,3.1,2.8,4.9c0.2,0.5,0,1.2-0.5,1.5l-2.3,2
			c0.1,0.4,0.1,0.8,0.1,1.3s0,0.9-0.1,1.3l2.4,2.1c0.4,0.3,0.6,0.9,0.4,1.5c-0.5,1.7-1.5,3.4-2.8,4.8c-0.4,0.4-1,0.6-1.5,0.4l-3-1
			c-0.7,0.5-1.5,1-2.3,1.3l-0.6,3.1c-0.1,0.5-0.5,1-1.1,1.1C35.9,49.6,35,49.7,34.1,49.7z M31.6,48c1.8,0.3,3.2,0.3,4.9,0l0.7-3.4
			c0-0.3,0.2-0.5,0.5-0.6c0.9-0.4,1.8-0.9,2.6-1.5c0.2-0.2,0.5-0.2,0.7-0.1l3.3,1.1c1.1-1.3,1.9-2.7,2.4-4.2L44,37
			c-0.2-0.2-0.3-0.4-0.2-0.7c0.1-0.4,0.1-0.9,0.1-1.5s0-1.1-0.1-1.5c0-0.3,0-0.5,0.2-0.7l2.6-2.3c-0.5-1.5-1.4-3-2.4-4.2l-3.3,1.2
			c-0.2,0.1-0.5,0-0.7-0.1c-0.8-0.6-1.7-1.2-2.6-1.5c-0.2-0.1-0.4-0.3-0.5-0.6l-0.7-3.4c-1.7-0.3-3.3-0.3-4.9,0L31,25.1
			c0,0.3-0.2,0.5-0.5,0.6c-1,0.4-1.9,0.9-2.6,1.5c-0.2,0.2-0.5,0.2-0.7,0.1l-3.3-1.1c-1.1,1.3-1.9,2.7-2.4,4.2l2.6,2.3
			c0.2,0.2,0.3,0.4,0.2,0.7c-0.1,0.4-0.1,0.9-0.1,1.5s0,1.1,0.1,1.5c0,0.3,0,0.5-0.2,0.7l-2.6,2.3c0.5,1.5,1.4,3,2.4,4.2l3.3-1.2
			c0.3-0.1,0.5,0,0.7,0.1c0.7,0.6,1.6,1.1,2.6,1.5c0.2,0.1,0.4,0.3,0.5,0.6L31.6,48z"/>
	</g>
</g>
</svg>
