<?xml version="1.0" encoding="utf-8"?>
<!-- Generator: Adobe Illustrator 15.0.0, SVG Export Plug-In . SVG Version: 6.00 Build 0)  -->
<!DOCTYPE svg PUBLIC "-//W3C//DTD SVG 1.1//EN" "http://www.w3.org/Graphics/SVG/1.1/DTD/svg11.dtd">
<svg version="1.1" id="Layer_1" xmlns="http://www.w3.org/2000/svg" xmlns:xlink="http://www.w3.org/1999/xlink" x="0px" y="0px"
	 width="68.1px" height="68.1px" viewBox="0 0 68.1 68.1" style="enable-background:new 0 0 68.1 68.1;" xml:space="preserve">
<style type="text/css">
<![CDATA[
	.st0{fill:#FFFFFF;}
]]>
</style>
<g>
	<path class="st0" d="M34.1,68.1C15.3,68.1,0,52.8,0,34S15.3,0,34.1,0C52.8,0,68.1,15.3,68.1,34S52.8,68.1,34.1,68.1z M34.1,1.5
		C16.1,1.5,1.5,16.1,1.5,34c0,17.9,14.6,32.6,32.6,32.6C52,66.6,66.6,52,66.6,34C66.6,16.1,52,1.5,34.1,1.5z"/>
</g>
<g>
	<rect x="19.5" y="33.3" class="st0" width="29" height="1.5"/>
</g>
<g>
	<rect x="33.3" y="19.5" class="st0" width="1.5" height="29"/>
</g>
</svg>
