<?xml version="1.0" encoding="utf-8"?>
<!-- Generator: Adobe Illustrator 15.0.0, SVG Export Plug-In . SVG Version: 6.00 Build 0)  -->
<!DOCTYPE svg PUBLIC "-//W3C//DTD SVG 1.1//EN" "http://www.w3.org/Graphics/SVG/1.1/DTD/svg11.dtd">
<svg version="1.1" id="Layer_1" xmlns="http://www.w3.org/2000/svg" xmlns:xlink="http://www.w3.org/1999/xlink" x="0px" y="0px"
	 width="14.7px" height="14.7px" viewBox="0 0 14.7 14.7" style="enable-background:new 0 0 14.7 14.7;" xml:space="preserve">
<style type="text/css">
<![CDATA[
	.st0{fill:#FFFFFF;}
]]>
</style>
<g>
	<g>
		<path class="st0" d="M13.9,14.7c-0.2,0-0.4-0.1-0.5-0.2L0.2,1.3c-0.3-0.3-0.3-0.8,0-1.1s0.8-0.3,1.1,0l13.2,13.2
			c0.3,0.3,0.3,0.8,0,1.1C14.3,14.6,14.1,14.7,13.9,14.7z"/>
	</g>
	<g>
		<path class="st0" d="M0.8,14.7c-0.2,0-0.4-0.1-0.5-0.2c-0.3-0.3-0.3-0.8,0-1.1L13.4,0.2c0.3-0.3,0.8-0.3,1.1,0s0.3,0.8,0,1.1
			L1.3,14.5C1.1,14.6,0.9,14.7,0.8,14.7z"/>
	</g>
</g>
</svg>
