<?xml version="1.0" encoding="utf-8"?>
<!-- Generator: Adobe Illustrator 15.0.0, SVG Export Plug-In . SVG Version: 6.00 Build 0)  -->
<!DOCTYPE svg PUBLIC "-//W3C//DTD SVG 1.1//EN" "http://www.w3.org/Graphics/SVG/1.1/DTD/svg11.dtd">
<svg version="1.1" id="Layer_1" xmlns="http://www.w3.org/2000/svg" xmlns:xlink="http://www.w3.org/1999/xlink" x="0px" y="0px"
	 width="68.1px" height="68.1px" viewBox="0 0 68.1 68.1" style="enable-background:new 0 0 68.1 68.1;" xml:space="preserve">
<style type="text/css">
<![CDATA[
	.st0{fill:#FFFFFF;}
]]>
</style>
<g>
	<g>
		<path class="st0" d="M34.1,68.1C15.3,68.1,0,52.8,0,34C0,15.3,15.3,0,34.1,0C52.8,0,68.1,15.3,68.1,34
			C68.1,52.8,52.8,68.1,34.1,68.1z M34.1,1.5C16.1,1.5,1.5,16.1,1.5,34c0,17.9,14.6,32.6,32.6,32.6C52,66.6,66.6,52,66.6,34
			C66.6,16.1,52,1.5,34.1,1.5z"/>
	</g>
	<g>
		<path class="st0" d="M48.6,35.3h-29c-0.4,0-0.8-0.3-0.8-0.8s0.3-0.8,0.8-0.8h29c0.4,0,0.8,0.3,0.8,0.8S49,35.3,48.6,35.3z"/>
	</g>
	<g>
		<path class="st0" d="M48.6,25.9h-29c-0.4,0-0.8-0.3-0.8-0.8s0.3-0.8,0.8-0.8h29c0.4,0,0.8,0.3,0.8,0.8S49,25.9,48.6,25.9z"/>
	</g>
	<g>
		<path class="st0" d="M48.6,44.7h-29c-0.4,0-0.8-0.3-0.8-0.8s0.3-0.8,0.8-0.8h29c0.4,0,0.8,0.3,0.8,0.8S49,44.7,48.6,44.7z"/>
	</g>
</g>
</svg>
