<?xml version="1.0" encoding="utf-8"?>
<!-- Generator: Adobe Illustrator 15.0.0, SVG Export Plug-In . SVG Version: 6.00 Build 0)  -->
<!DOCTYPE svg PUBLIC "-//W3C//DTD SVG 1.1//EN" "http://www.w3.org/Graphics/SVG/1.1/DTD/svg11.dtd">
<svg version="1.1" id="Layer_1" xmlns="http://www.w3.org/2000/svg" xmlns:xlink="http://www.w3.org/1999/xlink" x="0px" y="0px"
	 width="19.4px" height="20.9px" viewBox="0 0 19.4 20.9" style="enable-background:new 0 0 19.4 20.9;" xml:space="preserve">
<style type="text/css">
<![CDATA[
	.st0{fill:#0066CC;}
]]>
</style>
<g>
	<path class="st0" d="M18.6,5.6c0-0.2,0-0.5-0.2-0.7l-4.7-4.7c-0.3-0.3-0.8-0.3-1.1,0c-0.1,0.1-0.1,0.1-0.1,0.2
		c-0.1,0-0.1,0.1-0.2,0.1L1,11.9l0,0c-0.1,0.1-0.2,0.3-0.2,0.5l0,4.7c0,0.4,0.3,0.7,0.7,0.7l4.7,0h0c0.1,0,0.1,0,0.2,0
		c0.1,0,0.1,0,0.2,0c0.2,0,0.4-0.1,0.5-0.2L18.4,6.3C18.6,6.1,18.7,5.9,18.6,5.6 M17,5.6L6.3,16.3l-3.8-3.8L13.2,1.8L17,5.6z
		 M2.3,14.5l1.9,1.9l-1.9,0L2.3,14.5z"/>
	<g>
		<path class="st0" d="M18.6,20.9H0.8c-0.4,0-0.8-0.3-0.8-0.8s0.3-0.8,0.8-0.8h17.9c0.4,0,0.8,0.3,0.8,0.8S19,20.9,18.6,20.9z"/>
	</g>
</g>
</svg>
