<?xml version="1.0" encoding="utf-8"?>
<!-- Generator: Adobe Illustrator 15.0.0, SVG Export Plug-In . SVG Version: 6.00 Build 0)  -->
<!DOCTYPE svg PUBLIC "-//W3C//DTD SVG 1.1//EN" "http://www.w3.org/Graphics/SVG/1.1/DTD/svg11.dtd">
<svg version="1.1" id="Layer_1" xmlns="http://www.w3.org/2000/svg" xmlns:xlink="http://www.w3.org/1999/xlink" x="0px" y="0px"
	 width="152px" height="152px" viewBox="0 0 152 152" style="enable-background:new 0 0 152 152;" xml:space="preserve">
<style type="text/css">
<![CDATA[
	.st0{fill:#FFFFFF;}
]]>
</style>
<path class="st0" d="M76,0.3C34.2,0.3,0.3,34.2,0.3,76c0,41.8,33.9,75.7,75.7,75.7c41.8,0,75.7-33.9,75.7-75.7
	C151.7,34.2,117.8,0.3,76,0.3 M77.6,111.2c-0.8,0.7-1.6,0-1.6,0c-25.7-24.4-23.3-45-23.3-45c0-13.3,10.8-24.1,24.1-24.1
	c13.3,0,24.1,10.8,24.1,24.1C101,66.3,103.2,86.7,77.6,111.2"/>
</svg>
