<?xml version="1.0" encoding="utf-8"?>
<!-- Generator: Adobe Illustrator 15.0.0, SVG Export Plug-In . SVG Version: 6.00 Build 0)  -->
<!DOCTYPE svg PUBLIC "-//W3C//DTD SVG 1.1//EN" "http://www.w3.org/Graphics/SVG/1.1/DTD/svg11.dtd">
<svg version="1.1" id="Layer_1" xmlns="http://www.w3.org/2000/svg" xmlns:xlink="http://www.w3.org/1999/xlink" x="0px" y="0px"
	 width="68.1px" height="68.1px" viewBox="0 0 68.1 68.1" style="enable-background:new 0 0 68.1 68.1;" xml:space="preserve">
<style type="text/css">
<![CDATA[
	.st0{fill:#FFFFFF;}
]]>
</style>
<g>
	<g>
		<path class="st0" d="M34,68.3c-18.9,0-34.2-15.3-34.2-34.2C-0.2,15.2,15.2-0.2,34-0.2c18.9,0,34.2,15.4,34.2,34.2
			C68.3,52.9,52.9,68.3,34,68.3z M34,1.3C16,1.3,1.3,16,1.3,34.1c0,18,14.7,32.7,32.7,32.7c18,0,32.7-14.7,32.7-32.7
			C66.8,16,52.1,1.3,34,1.3z"/>
	</g>
	<g>
		<path class="st0" d="M34.3,51.9c-0.1,0-0.1,0-0.2,0l-9.4-4l-9.5,3.4c-0.2,0.1-0.3,0-0.5-0.1c-0.1-0.1-0.2-0.2-0.2-0.4v-29
			c0-0.2,0.1-0.4,0.3-0.4l9.3-4.9c0.1-0.1,0.3-0.1,0.4,0l9.8,3.9l9.3-4c0.2-0.1,0.3-0.1,0.5,0l8.2,5c0.1,0.1,0.2,0.3,0.2,0.4v29
			c0,0.2-0.1,0.3-0.2,0.4c-0.1,0.1-0.3,0.1-0.5,0.1l-8.5-3.4l-8.9,4C34.4,51.8,34.4,51.9,34.3,51.9z M24.7,46.8c0.1,0,0.1,0,0.2,0
			l9.4,4l8.9-4c0.1-0.1,0.3-0.1,0.4,0l8,3.2V22l-7.7-4.7l-9.3,4c-0.1,0.1-0.3,0.1-0.4,0l-9.8-3.9L15.5,22v28l9-3.2
			C24.6,46.8,24.7,46.8,24.7,46.8z"/>
	</g>
	<g>
		<path class="st0" d="M24,44.4c-0.3,0-0.5-0.2-0.5-0.5v-23c0-0.3,0.2-0.5,0.5-0.5c0.3,0,0.5,0.2,0.5,0.5v23
			C24.5,44.2,24.3,44.4,24,44.4z"/>
	</g>
	<g>
		<path class="st0" d="M34,48.4c-0.3,0-0.5-0.2-0.5-0.5v-24c0-0.3,0.2-0.5,0.5-0.5c0.3,0,0.5,0.2,0.5,0.5v24
			C34.5,48.2,34.3,48.4,34,48.4z"/>
	</g>
	<g>
		<path class="st0" d="M43.1,44.4c-0.3,0-0.5-0.2-0.5-0.5v-23c0-0.3,0.2-0.5,0.5-0.5c0.3,0,0.5,0.2,0.5,0.5v23
			C43.6,44.2,43.3,44.4,43.1,44.4z"/>
	</g>
</g>
</svg>
