<?xml version="1.0" encoding="utf-8"?>
<!-- Generator: Adobe Illustrator 15.0.0, SVG Export Plug-In . SVG Version: 6.00 Build 0)  -->
<!DOCTYPE svg PUBLIC "-//W3C//DTD SVG 1.1//EN" "http://www.w3.org/Graphics/SVG/1.1/DTD/svg11.dtd">
<svg version="1.1" id="Layer_1" xmlns="http://www.w3.org/2000/svg" xmlns:xlink="http://www.w3.org/1999/xlink" x="0px" y="0px"
	 width="44.2px" height="44.2px" viewBox="0 0 44.2 44.2" style="enable-background:new 0 0 44.2 44.2;" xml:space="preserve">
<style type="text/css">
<![CDATA[
	.st0{fill:#FFFFFF;}
]]>
</style>
<g>
	<path class="st0" d="M22.1,44.2C9.9,44.2,0,34.3,0,22.1C0,9.9,9.9,0,22.1,0s22.1,9.9,22.1,22.1C44.2,34.3,34.3,44.2,22.1,44.2z
		 M22.1,1.5c-11.4,0-20.6,9.2-20.6,20.6c0,11.4,9.2,20.6,20.6,20.6s20.6-9.2,20.6-20.6C42.7,10.7,33.5,1.5,22.1,1.5z"/>
</g>
<g>
	<path class="st0" d="M22.6,32.8c-0.1,0-0.2,0-0.2,0c-0.3,0.1-0.5,0-0.7-0.2c-7.4-7.1-6.8-13.1-6.8-13.3c0-4.1,3.4-7.5,7.6-7.5
		s7.6,3.4,7.6,7.6c0,0.2,0.6,6.2-6.8,13.2C23,32.7,22.8,32.8,22.6,32.8z M22.3,13.3c-3.3,0-6.1,2.7-6.1,6.1c0,0.1-0.5,5.5,6.1,11.9
		c6.6-6.4,6.1-11.7,6.1-11.8C28.4,16,25.7,13.3,22.3,13.3z"/>
</g>
<g>
	<path class="st0" d="M23.5,19.7c0,0.8-0.6,1.4-1.4,1.4c-0.8,0-1.4-0.6-1.4-1.4s0.6-1.4,1.4-1.4C22.9,18.3,23.5,19,23.5,19.7"/>
</g>
<g>
	<path class="st0" d="M22.1,21.4c-0.9,0-1.7-0.7-1.7-1.7s0.7-1.7,1.7-1.7s1.7,0.7,1.7,1.7S23,21.4,22.1,21.4z M22.1,18.6
		c-0.6,0-1.2,0.5-1.2,1.2s0.5,1.2,1.2,1.2s1.2-0.5,1.2-1.2S22.8,18.6,22.1,18.6z"/>
</g>
</svg>
