<?xml version="1.0" encoding="utf-8"?>
<!-- Generator: Adobe Illustrator 15.0.0, SVG Export Plug-In . SVG Version: 6.00 Build 0)  -->
<!DOCTYPE svg PUBLIC "-//W3C//DTD SVG 1.1//EN" "http://www.w3.org/Graphics/SVG/1.1/DTD/svg11.dtd">
<svg version="1.1" id="Layer_1" xmlns="http://www.w3.org/2000/svg" xmlns:xlink="http://www.w3.org/1999/xlink" x="0px" y="0px"
	 width="44.2px" height="44.2px" viewBox="0 0 44.2 44.2" style="enable-background:new 0 0 44.2 44.2;" xml:space="preserve">
<style type="text/css">
<![CDATA[
	.st0{fill:#0066CC;}
]]>
</style>
<g>
	<g>
		<path class="st0" d="M22.1,44.2C9.9,44.2,0,34.3,0,22.1C0,9.9,9.9,0,22.1,0c12.2,0,22.1,9.9,22.1,22.1
			C44.2,34.3,34.3,44.2,22.1,44.2z M22.1,1.5c-11.4,0-20.6,9.2-20.6,20.6s9.2,20.6,20.6,20.6c11.4,0,20.6-9.2,20.6-20.6
			S33.5,1.5,22.1,1.5z"/>
	</g>
	<g>
		<path class="st0" d="M18.7,27.8c-0.2,0-0.4-0.1-0.5-0.2l-4.3-4.3c-0.3-0.3-0.3-0.8,0-1.1c0.3-0.3,0.8-0.3,1.1,0l3.8,3.8l10.7-10.7
			c0.3-0.3,0.8-0.3,1.1,0s0.3,0.8,0,1.1L19.2,27.6C19.1,27.8,18.9,27.8,18.7,27.8z"/>
	</g>
</g>
</svg>
