<?xml version="1.0" encoding="utf-8"?>
<!-- Generator: Adobe Illustrator 15.0.0, SVG Export Plug-In . SVG Version: 6.00 Build 0)  -->
<!DOCTYPE svg PUBLIC "-//W3C//DTD SVG 1.1//EN" "http://www.w3.org/Graphics/SVG/1.1/DTD/svg11.dtd">
<svg version="1.1" id="Layer_1" xmlns="http://www.w3.org/2000/svg" xmlns:xlink="http://www.w3.org/1999/xlink" x="0px" y="0px"
	 width="250.2px" height="381px" viewBox="0 0 250.2 381" style="enable-background:new 0 0 250.2 381;" xml:space="preserve">
<style type="text/css">
<![CDATA[
	.st0{fill:#FFFFFF;}
]]>
</style>
<path class="st0" d="M39.2,352.7c-2-0.8-4.2-1.3-6.6-1.5c-2.2-0.2-4.5-0.4-6.9-0.5c-2.3-0.1-4.5-0.2-6.6-0.3c-2-0.1-3.7-0.3-5.2-0.7
	c-1.3-0.3-2.2-0.8-2.9-1.3c-0.1-0.1-0.5-0.4-0.5-1.5c0-0.2,0.1-0.5,0.2-0.8c0.2-0.4,0.4-0.9,0.8-1.3c0.4-0.5,0.8-0.9,1.4-1.4
	c0.2-0.2,0.4-0.3,0.6-0.5c2.5,1,5.3,1.4,8.4,1.4c2.9,0,5.5-0.4,7.9-1.3c2.4-0.9,4.5-2.1,6.3-3.7c1.8-1.6,3.1-3.6,4.1-5.9
	c0.9-2.2,1.4-4.7,1.4-7.4c0-2.7-0.5-5.2-1.4-7.4c-0.1-0.3-0.2-0.6-0.4-0.8l4-0.1c0.9,0,1.8-0.3,2.5-0.8c0.9-0.7,1.5-1.7,1.5-2.9
	v-3.1H33.5c-1.4-1-3.1-1.7-4.8-2.2c-2.1-0.6-4.4-1-6.8-1c-2.9,0-5.6,0.4-8,1.3c-2.4,0.9-4.5,2.1-6.2,3.8c-1.8,1.6-3.1,3.6-4.1,5.9
	c-0.9,2.2-1.4,4.7-1.4,7.4c0,3.4,0.7,6.5,2.2,9.2c0.8,1.4,1.8,2.7,2.9,3.8c-0.7,0.6-1.2,1.3-1.7,2c-0.6,0.9-1.2,1.8-1.5,2.8
	c-0.4,1.1-0.6,2.1-0.6,3.2c0,3.3,1.3,5.3,2.5,6.4c-1.2,0.8-2.3,1.7-3.2,2.7C0.2,358.4-1,361.5-1,365c0,2.3,0.6,4.5,1.7,6.5
	c1.1,2,2.7,3.7,4.9,5.1c2,1.4,4.5,2.4,7.3,3.2c2.8,0.8,6,1.1,9.6,1.1c3.5,0,6.8-0.5,9.7-1.3c2.9-0.9,5.5-2.1,7.6-3.7
	c2.2-1.6,3.9-3.5,5.1-5.6c1.3-2.2,1.9-4.6,1.9-7c0-2.8-0.8-5.1-2.3-6.9C43.2,354.8,41.4,353.6,39.2,352.7 M21.8,314.4
	c2,0,3.8,0.3,5.4,0.9c1.5,0.5,2.8,1.3,3.8,2.3c1,1,1.8,2.1,2.4,3.5c0.6,1.4,0.9,3,0.9,4.7c0,1.7-0.3,3.3-0.8,4.8
	c-0.5,1.4-1.3,2.5-2.3,3.5c-1,1-2.3,1.7-3.8,2.3c-1.6,0.6-3.4,0.9-5.5,0.9c-2,0-3.8-0.3-5.4-0.9c-1.5-0.5-2.8-1.3-3.8-2.3
	c-1-1-1.8-2.1-2.4-3.5c-0.6-1.4-0.9-3-0.9-4.7c0-1.7,0.3-3.3,0.9-4.7c0.6-1.4,1.3-2.5,2.4-3.5c1-1,2.3-1.7,3.8-2.3
	C18,314.7,19.8,314.4,21.8,314.4 M22.4,374.1c-2.7,0-5.1-0.3-7.3-0.8c-2-0.5-3.8-1.3-5.2-2.2c-1.3-0.8-2.3-1.8-2.9-2.9
	c-0.6-1-0.9-2-0.9-3.1c0-0.9,0.2-1.8,0.5-2.5c0.4-0.8,0.9-1.6,1.6-2.3c0.7-0.7,1.7-1.4,2.7-2c1-0.5,2.1-1,3.2-1.5
	c1.7,0.3,3.5,0.5,5.4,0.5c2.1,0.1,4.2,0.2,6.3,0.3c2.1,0.1,4.1,0.3,6,0.5c1.7,0.2,3.2,0.6,4.5,1.1c1.1,0.4,1.9,1,2.5,1.7
	c0.5,0.5,0.7,1.4,0.7,2.5c0,1.4-0.4,2.7-1.2,3.9c-0.9,1.3-2.1,2.5-3.6,3.5c-1.6,1-3.5,1.9-5.6,2.4C27.1,373.7,24.8,374.1,22.4,374.1
	"/>
<path class="st0" d="M89.9,315.4c-2.1-2.5-4.7-4.5-7.8-5.9c-3-1.4-6.5-2.1-10.4-2.1c-3.9,0-7.4,0.7-10.4,2.1
	c-3.1,1.4-5.7,3.4-7.8,5.9c-2.1,2.5-3.7,5.5-4.7,8.9c-1,3.3-1.5,7.1-1.5,11.1c0,4,0.5,7.7,1.5,11.1c1,3.4,2.6,6.4,4.7,8.9
	c2.1,2.5,4.7,4.5,7.8,5.8c3,1.3,6.5,2,10.4,2c3.8,0,7.3-0.7,10.4-2c3.1-1.3,5.7-3.3,7.8-5.8c2.1-2.5,3.7-5.4,4.7-8.9
	c1-3.3,1.5-7,1.5-11.1c0-4-0.5-7.8-1.5-11.1C93.5,320.8,91.9,317.8,89.9,315.4 M71.7,356.1c-2.9,0-5.5-0.5-7.6-1.5
	c-2.1-1-3.8-2.3-5.2-4c-1.4-1.7-2.5-3.9-3.3-6.4c-0.8-2.6-1.2-5.6-1.2-8.9c0-3.2,0.4-6.2,1.2-8.9c0.7-2.5,1.8-4.7,3.3-6.5
	c1.4-1.8,3.1-3.1,5.2-4.1c2.1-1,4.7-1.5,7.6-1.5c2.9,0,5.4,0.5,7.6,1.5c2.1,1,3.8,2.3,5.3,4.1c1.4,1.8,2.5,4,3.3,6.5
	c0.8,2.7,1.2,5.6,1.2,8.9c0,3.2-0.4,6.2-1.2,8.9c-0.7,2.5-1.8,4.7-3.3,6.4c-1.4,1.7-3.1,3-5.3,4C77.1,355.6,74.6,356.1,71.7,356.1"
	/>
<path class="st0" d="M135.6,311.5c0-0.6-1.4-1.1-2.3-1.5c-3.1-1.6-6.7-2.5-10.8-2.5c-4,0-7.6,0.8-10.6,2.2c-3.1,1.5-5.7,3.6-7.8,6.1
	c-2,2.5-3.6,5.6-4.6,9c-1,3.3-1.5,6.9-1.5,10.7c0,9.1,1.9,16,5.7,20.5c3.9,4.7,9.6,7.1,16.9,7.1c4.3,0,8.2-1.1,11.8-3.3
	c1.3-0.8,2.5-1.7,3.6-2.6l0,1.7c0,2.2,1.6,3.9,3.7,3.9h3.7v-77h-8V311.5z M120.8,356.1c-5.1,0-8.9-1.5-11.4-4.7
	c-2.7-3.3-4-8.7-4-15.9c0-3.1,0.4-6,1.1-8.6c0.7-2.5,1.8-4.8,3.3-6.6c1.4-1.8,3.1-3.2,5.3-4.2c2.1-1,4.7-1.5,7.7-1.5
	c2.9,0,5.3,0.6,7.5,1.7c2,1,4.4,2.9,5.4,5.4v25.3c-2,2.8-4,5-6.5,6.7C126.4,355.3,123.9,356.1,120.8,356.1"/>
<path class="st0" d="M187.6,311.5c-1-0.6-1.6-1.1-2.5-1.5c-3.1-1.6-6.8-2.5-10.9-2.5c-4,0-7.6,0.8-10.7,2.2
	c-3.1,1.5-5.7,3.6-7.8,6.1c-2,2.5-3.6,5.6-4.6,9c-1,3.3-1.5,6.9-1.5,10.7c0,9.1,1.9,16,5.7,20.5c3.9,4.7,9.6,7.1,16.9,7.1
	c4.3,0,8.2-1.1,11.8-3.3c1.3-0.8,2.5-1.7,3.6-2.6l0,1.7c0,2.2,1.6,3.9,3.7,3.9h3.1v-77h-7V311.5z M172.4,356.1
	c-5.1,0-8.9-1.5-11.4-4.7c-2.7-3.3-4-8.7-4-15.9c0-3.1,0.4-6,1.1-8.6c0.7-2.5,1.8-4.8,3.3-6.6c1.4-1.8,3.1-3.2,5.3-4.2
	c2.1-1,4.7-1.5,7.7-1.5c2.9,0,5.5,0.6,7.7,1.7c2,1,3.6,2.9,5.6,5.4v25.3c-2,2.8-4.2,5-6.7,6.7C178.2,355.3,175.5,356.1,172.4,356.1"
	/>
<path class="st0" d="M243.9,308.7c-1.5,0-2.8,0.6-3.6,2.1L222.8,350l-17.4-39.1c-0.2-0.6-0.6-0.9-1.1-1.4c-0.7-0.6-1.6-0.8-2.6-0.8
	h-5.3l22.6,50.4l-9.8,21.6h5.4c1.2,0,2.2-0.7,3-1.6c0.4-0.5,0.7-0.9,1-1.4l30.8-69H243.9z"/>
<path class="st0" d="M118.8,0C64.2,0,20,44.2,20,98.7c0,54.5,44.2,98.7,98.7,98.7c54.5,0,98.7-44.2,98.7-98.7
	C217.5,44.2,173.3,0,118.8,0 M120.9,144.7c-1,0.9-2.1,0-2.1,0c-33.5-31.8-30.4-58.6-30.4-58.6c0-17.4,14.1-31.5,31.5-31.5
	c17.4,0,31.5,14.1,31.5,31.5C151.3,86.1,154.3,112.7,120.9,144.7"/>
</svg>
