<?xml version="1.0" encoding="utf-8"?>
<!-- Generator: Adobe Illustrator 15.0.0, SVG Export Plug-In . SVG Version: 6.00 Build 0)  -->
<!DOCTYPE svg PUBLIC "-//W3C//DTD SVG 1.1//EN" "http://www.w3.org/Graphics/SVG/1.1/DTD/svg11.dtd">
<svg version="1.1" id="Layer_1" xmlns="http://www.w3.org/2000/svg" xmlns:xlink="http://www.w3.org/1999/xlink" x="0px" y="0px"
	 width="1400px" height="1250px" viewBox="0 0 1400 1250" style="enable-background:new 0 0 1400 1250;" xml:space="preserve">
<style type="text/css">
<![CDATA[
	.st0{fill:#FFFFFF;}
]]>
</style>
<path class="st0" d="M700.8,527c-54.5,0-98.7,44.2-98.7,98.7c0,54.5,44.2,98.7,98.7,98.7c54.5,0,98.7-44.2,98.7-98.7
	C799.5,571.2,755.3,527,700.8,527 M702.9,671.6c-1,0.9-2.1,0-2.1,0c-33.5-31.8-30.4-58.6-30.4-58.6c0-17.4,14.1-31.5,31.5-31.5
	c17.4,0,31.5,14.1,31.5,31.5C733.3,613,736.3,639.7,702.9,671.6"/>
</svg>
